<svg id="Layer_1" enable-background="new 0 0 256 256" height="512" viewBox="0 0 256 256" width="512" xmlns="http://www.w3.org/2000/svg"><path d="m204.258 248h-149.053v-20.956c0-19.208 15.571-34.779 34.779-34.779h79.495c19.208 0 34.779 15.571 34.779 34.779z" fill="#6bdddd"/><path d="m194.755 101.107c-.138 0-.271.018-.408.02v-6.042c0-35.316-28.929-63.945-64.615-63.945-35.686 0-64.615 28.629-64.615 63.945v6.042c-.137-.003-.271-.02-.408-.02-10.887 0-19.713 8.734-19.713 19.509 0 10.774 8.826 19.509 19.713 19.509.715 0 1.42-.042 2.115-.116 6.668 28.289 32.292 49.369 62.908 49.369 30.616 0 56.24-21.08 62.908-49.369.695.073 1.4.116 2.115.116 10.887 0 19.713-8.734 19.713-19.509-.001-10.775-8.826-19.509-19.713-19.509z" fill="#f9cfcf"/><path d="m142.223 161.093c-1.104 0-2-.896-2-2 0-1.589-.702-3.124-2.029-4.438-1.17-1.158-2.767-2.063-4.616-2.615-1.114-.333-2.375-.495-3.855-.495-1.479 0-2.74.162-3.854.495-1.85.553-3.446 1.458-4.618 2.616-1.327 1.314-2.028 2.849-2.028 4.438 0 1.104-.896 2-2 2s-2-.896-2-2c0-2.642 1.142-5.227 3.214-7.28 1.636-1.62 3.81-2.867 6.287-3.606 1.49-.445 3.125-.662 4.999-.662s3.509.217 5 .663c2.477.74 4.65 1.986 6.286 3.605 2.073 2.053 3.214 4.638 3.214 7.28 0 1.103-.895 1.999-2 1.999z" fill="#3762cc"/><path d="m134.507 189.184c-.261.02-.521.042-.783.06-.405.025-.811.046-1.219.063-.92.041-1.844.07-2.774.07-.931 0-1.855-.029-2.775-.07-.408-.017-.814-.039-1.219-.063-.261-.017-.52-.039-.78-.059-9.516-.689-18.461-3.402-26.384-7.733v7.425c0 17.262 13.501 31.256 30.156 31.256h2.005c16.655 0 30.156-13.994 30.156-31.256v-7.425c-7.923 4.33-16.868 7.043-26.383 7.732z" fill="#f9cfcf"/><path d="m129.731 191.377c-30.546 0-56.805-20.17-64.444-49.262-.195.005-.388.008-.579.008-11.973 0-21.713-9.648-21.713-21.508 0-11.33 8.889-20.642 20.122-21.452v-4.078c0-36.362 29.883-65.945 66.615-65.945s66.615 29.583 66.615 65.945v4.078c11.232.811 20.121 10.122 20.121 21.452 0 11.86-9.74 21.508-21.713 21.508-.191 0-.384-.003-.579-.008-7.64 29.092-33.898 49.262-64.445 49.262zm-62.906-53.369c.917 0 1.73.63 1.945 1.541 6.638 28.161 31.706 47.828 60.961 47.828s54.324-19.667 60.961-47.828c.231-.98 1.156-1.638 2.158-1.53.664.07 1.286.104 1.904.104 9.767 0 17.713-7.854 17.713-17.508 0-9.653-7.943-17.506-17.707-17.509-.181.012-.279.019-.378.02-.539.006-1.055-.197-1.437-.573-.383-.376-.599-.89-.599-1.427v-6.042c0-34.157-28.089-61.945-62.615-61.945s-62.614 27.79-62.614 61.946v6.042c0 .537-.216 1.051-.599 1.427-.382.376-.877.596-1.437.573-.1-.001-.198-.008-.296-.015-.003 0-.007 0-.01 0-9.839 0-17.78 7.852-17.78 17.503 0 9.654 7.946 17.508 17.713 17.508.618 0 1.24-.034 1.904-.104.072-.008.142-.011.213-.011z" fill="#3762cc"/><path d="m204.258 250h-149.053c-1.104 0-2-.896-2-2v-20.957c0-20.28 16.499-36.779 36.779-36.779h6.619c-.02-.467-.029-.93-.029-1.388v-7.425c0-.706.373-1.36.98-1.72.607-.361 1.36-.373 1.979-.035 7.896 4.315 16.498 6.836 25.57 7.493l.766.059c.382.023.777.044 1.172.061 1.793.08 3.595.08 5.375 0 .401-.017.795-.038 1.189-.062l.746-.057c9.084-.658 17.687-3.18 25.58-7.494.62-.339 1.372-.327 1.979.035.607.36.98 1.014.98 1.72v7.425c0 .458-.01.921-.029 1.388h6.619c20.28 0 36.779 16.499 36.779 36.779v20.957c-.001 1.104-.897 2-2.001 2zm-147.053-4h145.053v-18.957c0-18.074-14.705-32.779-32.779-32.779h-8.769c-.566 0-1.106-.24-1.486-.661s-.562-.983-.503-1.546c.112-1.074.169-2.144.169-3.181v-4.147c-7.575 3.665-15.712 5.832-24.238 6.449l-.796.061c-.428.026-.846.048-1.265.065-1.889.086-3.822.086-5.724 0-.414-.018-.832-.04-1.249-.064l-.817-.063c-8.514-.616-16.651-2.783-24.227-6.448v4.146c0 1.037.057 2.107.169 3.181.059.563-.124 1.125-.503 1.546s-.919.661-1.486.661h-8.769c-18.075 0-32.779 14.705-32.779 32.779v18.958z" fill="#3762cc"/><path d="m168.919 115.683-8.925-1.574c-1.939-.342-3.672-1.165-5.102-2.321-.402.911-.63 1.916-.63 2.974v12.333c0 4.08 3.324 7.399 7.411 7.399 4.085 0 7.409-3.319 7.409-7.399v-11.391c-.055-.009-.109-.011-.163-.021z" fill="#3762cc"/><path d="m206.305 51.659c-5.07-15.73-16.649-28.23-31.454-34.392l.001-.008c-52.045-25.619-80.51 5.289-80.51 5.289-2.142 2.062-3.136 5.197-2.384 8.273 5.975 24.423 22.073 44.985 44.102 56.333l.031.016c4.756 2.45 9.721 4.45 14.835 5.976 1.272.38 2.297-1.093 1.527-2.192l-10.701-15.271c-.933-1.331.706-2.956 1.978-1.959 11.833 9.266 34.824 24.616 58.08 25.387l3.787-10.371c4.354-11.921 4.603-24.997.708-37.081z" fill="#4671c6"/><g fill="#3762cc"><path d="m201.811 101.111c-.022 0-.044 0-.067-.001-21.966-.728-43.602-14.087-56.173-23.462l8.52 12.158c.854 1.218.842 2.784-.027 3.989-.856 1.187-2.313 1.683-3.709 1.268-5.218-1.557-10.325-3.615-15.178-6.115-22.594-11.639-39.043-32.646-45.16-57.652-.895-3.657.216-7.54 2.899-10.15.688-.731 7.984-8.247 21.535-12.748 12.783-4.246 33.792-6.467 61.286 7.066.018.009.035.018.052.027 15.411 6.472 27.221 19.421 32.421 35.554 4.016 12.46 3.755 26.09-.733 38.381l-3.787 10.371c-.29.791-1.042 1.314-1.879 1.314zm-58.936-29.7c.727 0 1.458.245 2.089.738 11.25 8.809 33.216 23.569 55.472 24.896l3.283-8.991c4.185-11.458 4.427-24.166.683-35.781-4.858-15.076-15.91-27.162-30.319-33.159-.095-.04-.187-.086-.272-.139-20.655-10.13-40.668-12.498-57.888-6.85-13.048 4.279-20.041 11.706-20.11 11.781-.026.028-.055.058-.082.084-1.689 1.625-2.389 4.061-1.828 6.356 5.842 23.88 21.542 43.938 43.075 55.031 4.147 2.136 8.461 3.925 12.868 5.341l-9.731-13.886c-.988-1.41-.8-3.292.448-4.475.661-.628 1.483-.946 2.312-.946z"/><path d="m170.859 117.853c-.765 0-1.53-.066-2.288-.2l-8.925-1.574c-7.186-1.267-12-8.144-10.734-15.329.192-1.088 1.234-1.812 2.317-1.623 1.088.192 1.814 1.229 1.623 2.317-.884 5.014 2.476 9.812 7.489 10.695l8.925 1.574c2.085.368 4.165.029 6.018-.983.972-.529 2.185-.17 2.713.798.529.97.171 2.185-.798 2.713-1.945 1.062-4.136 1.612-6.34 1.612z"/><path d="m99.401 114.109-8.925 1.574c-.042.008-.084.009-.126.016v11.396c0 4.08 3.324 7.399 7.411 7.399 4.085 0 7.409-3.319 7.409-7.399v-12.333c0-1.067-.232-2.08-.641-2.997-1.435 1.168-3.176 2-5.128 2.344z"/><path d="m88.535 117.853c-2.204 0-4.394-.549-6.339-1.61-.97-.529-1.327-1.744-.798-2.713.529-.971 1.745-1.328 2.713-.798 1.853 1.01 3.932 1.35 6.018.983l8.925-1.574c2.429-.428 4.545-1.776 5.959-3.796 1.415-2.02 1.958-4.47 1.529-6.898-.192-1.088.535-2.125 1.622-2.317 1.089-.19 2.125.534 2.317 1.622.614 3.481-.165 6.993-2.192 9.888s-5.061 4.828-8.542 5.441l-8.925 1.574c-.757.132-1.523.198-2.287.198z"/></g><path d="m43.888 78.471c-2.924-7.829-3.132-16.414-.59-24.376l.218-.684c4.158-13.024 15.113-22.727 28.544-25.282 6.34-1.206 12.884-.745 18.992 1.337l.713.243c.041.37.103.742.194 1.111 2.933 11.989 8.317 23.038 15.632 32.533-6.349 17.689-14.117 27.773-20.039 33.357v.002l-7.773 7.889-15.072-3.494c-4.118 0-7.939 1.253-11.101 3.39z" fill="#4671c6"/><path d="m79.78 106.601c-.15 0-.302-.017-.452-.052l-14.843-3.441c-3.5.042-6.869 1.094-9.758 3.046-.508.343-1.146.435-1.729.248-.584-.187-1.05-.631-1.264-1.205l-9.719-26.027c-3.067-8.212-3.288-17.333-.622-25.684l.219-.685c4.385-13.735 15.909-23.943 30.075-26.637 6.666-1.268 13.586-.781 20.011 1.409l.713.243c.734.25 1.257.902 1.343 1.673.033.301.083.589.149.858 2.845 11.63 7.984 22.325 15.274 31.786.416.54.528 1.255.298 1.896-6.619 18.441-14.828 28.742-20.549 34.136l-7.72 7.839c-.382.387-.897.597-1.426.597zm-15.072-7.495c.152 0 .304.018.452.052l13.98 3.242 6.987-7.092c5.351-5.047 12.931-14.559 19.211-31.612-7.279-9.688-12.431-20.582-15.323-32.4-.006-.024-.012-.049-.018-.073-5.655-1.851-11.719-2.242-17.565-1.129-12.722 2.42-23.072 11.587-27.01 23.925l-.219.685c-2.394 7.499-2.195 15.691.559 23.067l8.882 23.785c3.094-1.609 6.528-2.45 10.064-2.45z" fill="#3762cc"/><path d="m97.87 142.079c-3.036 0-5.828-1.394-7.662-3.825-.499-.662-.367-1.602.294-2.101.661-.498 1.602-.368 2.101.294 1.261 1.672 3.181 2.632 5.267 2.632 2.19 0 4.232-1.087 5.464-2.908.464-.686 1.397-.866 2.083-.402s.866 1.397.402 2.083c-1.791 2.647-4.762 4.227-7.949 4.227z" fill="#a4c9ff"/><path d="m161.551 142.079c-3.036 0-5.829-1.395-7.662-3.825-.499-.662-.367-1.602.294-2.101.662-.498 1.602-.367 2.101.294 1.261 1.673 3.181 2.632 5.267 2.632 2.19 0 4.232-1.087 5.464-2.908.465-.686 1.397-.866 2.083-.402s.866 1.397.402 2.083c-1.791 2.647-4.762 4.227-7.949 4.227z" fill="#a4c9ff"/></svg>